<?xml version="1.0" standalone="no"?>
<!DOCTYPE svg PUBLIC "-//W3C//DTD SVG 20010904//EN"
 "http://www.w3.org/TR/2001/REC-SVG-20010904/DTD/svg10.dtd">
<svg version="1.0" xmlns="http://www.w3.org/2000/svg"
 width="512.000000pt" height="512.000000pt" viewBox="0 0 512.000000 512.000000"
 preserveAspectRatio="xMidYMid meet">
<metadata>
Created by potrace 1.11, written by Peter Selinger 2001-2013
</metadata>
<g transform="translate(0.000000,512.000000) scale(0.100000,-0.100000)"
fill="#000000" stroke="none">
<path d="M430 5104 c-155 -40 -293 -148 -364 -283 -70 -134 -66 27 -66 -2261
0 -2292 -5 -2126 68 -2264 48 -92 136 -180 228 -228 138 -73 -28 -68 2264 -68
2292 0 2126 -5 2264 68 92 48 180 136 228 228 73 138 68 -28 68 2264 0 1805
-2 2073 -15 2129 -47 198 -218 369 -416 416 -94 22 -4174 22 -4259 -1z m2646
-624 c50 -25 79 -49 106 -85 68 -90 68 -89 68 -570 0 -594 14 -741 94 -978 19
-56 163 -379 320 -718 157 -340 293 -646 302 -680 21 -82 15 -221 -14 -301
-48 -135 -137 -224 -307 -307 -382 -186 -883 -274 -1316 -231 -426 43 -863
192 -1036 353 -128 120 -181 303 -139 482 22 89 232 538 277 589 20 23 61 55
90 71 l54 30 597 0 597 0 30 -29 c56 -54 64 -134 19 -191 -43 -55 -42 -55
-626 -55 -420 0 -542 -3 -549 -12 -23 -30 -204 -434 -214 -476 -18 -80 11
-165 73 -217 79 -68 384 -183 588 -224 175 -34 286 -45 480 -44 289 1 562 51
810 149 250 98 313 155 314 283 1 66 0 69 -287 686 -437 940 -437 938 -437
1736 0 416 -2 464 -17 481 -15 17 -44 18 -496 18 -410 0 -484 2 -510 15 -99
48 -101 186 -5 245 32 20 47 20 549 18 l516 -3 69 -35z m-440 -969 c62 -38 82
-131 41 -192 -44 -67 -57 -69 -392 -69 -266 0 -304 2 -335 18 -98 49 -106 182
-15 242 28 19 48 20 350 20 296 0 322 -2 351 -19z m-16 -689 c102 -51 107
-195 8 -249 -30 -16 -69 -18 -378 -21 -228 -2 -362 0 -396 8 -71 15 -105 53
-112 121 -6 68 16 111 72 139 39 19 59 20 406 20 328 0 369 -2 400 -18z"/>
</g>
</svg>
